HIERARCHY
ROOT SpineBase
{
  OFFSET 0.000000 0.000000 0.000000
  CHANNELS 6 Xposition Yposition Zposition Zrotation Xrotation Yrotation
  JOINT SpineMid
  {
    OFFSET 0.000000 18.456020 0.000000
    CHANNELS 3 Zrotation Xrotation Yrotation
    JOINT SpineShoulder
    {
      OFFSET -0.130363 13.487705 -0.540130
      CHANNELS 3 Zrotation Xrotation Yrotation
      JOINT Neck
      {
        OFFSET -0.105538 4.356372 -0.437569
        CHANNELS 3 Zrotation Xrotation Yrotation
        JOINT Head
        {
          OFFSET -10.425381 7.362073 9.341309
          CHANNELS 3 Zrotation Xrotation Yrotation
          End Site
          {
            OFFSET 0 0 0
          }
        }
      }
      JOINT ShoulderLeft
      {
        OFFSET 0.043248 6.413612 -1.974009
        CHANNELS 3 Zrotation Xrotation Yrotation
        JOINT ElbowLeft
        {
          OFFSET -8.925735 -5.539041 -4.997213
          CHANNELS 3 Zrotation Xrotation Yrotation
          JOINT WristLeft
          {
            OFFSET 6.118219 -23.303220 -4.206275
            CHANNELS 3 Zrotation Xrotation Yrotation
            JOINT HandLeft
            {
              OFFSET -0.855554 -7.908903 5.672834
              CHANNELS 3 Zrotation Xrotation Yrotation
              JOINT HandTipLeft
              {
                OFFSET -0.578145 -5.607592 -4.817755
                CHANNELS 3 Zrotation Xrotation Yrotation
                End Site
                {
                  OFFSET 0 0 0
                }
              }
              JOINT ThumbLeft
              {
                OFFSET -1.372703 0.246832 -0.642127
                CHANNELS 3 Zrotation Xrotation Yrotation
                End Site
                {
                  OFFSET 0 0 0
                }
              }
            }
          }
        }
      }
      JOINT ShoulderRight
      {
        OFFSET -0.874091 4.359654 -3.623994
        CHANNELS 3 Zrotation Xrotation Yrotation
        JOINT ElbowRight
        {
          OFFSET -2.209329 23.475462 11.968545
          CHANNELS 3 Zrotation Xrotation Yrotation
          JOINT WristRight
          {
            OFFSET -1.651524 -27.662566 -10.212771
            CHANNELS 3 Zrotation Xrotation Yrotation
            JOINT HandRight
            {
              OFFSET 1.263406 -9.322350 -3.125092
              CHANNELS 3 Zrotation Xrotation Yrotation
              JOINT HandTipRight
              {
                OFFSET 2.887036 -5.258199 -5.115996
                CHANNELS 3 Zrotation Xrotation Yrotation
                End Site
                {
                  OFFSET 0 0 0
                }
              }
              JOINT ThumbRight
              {
                OFFSET 1.484385 2.629225 -4.899898
                CHANNELS 3 Zrotation Xrotation Yrotation
                End Site
                {
                  OFFSET 0 0 0
                }
              }
            }
          }
        }
      }
    }
  }
  JOINT HipLeft
  {
    OFFSET 2.197547 5.287408 -7.322173
    CHANNELS 3 Zrotation Xrotation Yrotation
    JOINT KneeLeft
    {
      OFFSET -10.485510 -28.572660 15.041976
      CHANNELS 3 Zrotation Xrotation Yrotation
      JOINT AnkleLeft
      {
        OFFSET 64.992733 31.397072 -31.471207
        CHANNELS 3 Zrotation Xrotation Yrotation
        JOINT FootLeft
        {
          OFFSET -2.976903 2.923571 -12.885897
          CHANNELS 3 Zrotation Xrotation Yrotation
          End Site
          {
            OFFSET 0 0 0
          }
        }
      }
    }
  }
  JOINT HipRight
  {
    OFFSET -3.752266 -7.415466 0.891461
    CHANNELS 3 Zrotation Xrotation Yrotation
    JOINT KneeRight
    {
      OFFSET 8.918865 38.534817 0.282024
      CHANNELS 3 Zrotation Xrotation Yrotation
      JOINT AnkleRight
      {
        OFFSET -24.305835 0.202629 -27.368469
        CHANNELS 3 Zrotation Xrotation Yrotation
        JOINT FootRight
        {
          OFFSET 4.792208 -2.068394 6.429383
          CHANNELS 3 Zrotation Xrotation Yrotation
          End Site
          {
            OFFSET 0 0 0
          }
        }
      }
    }
  }
}
MOTION
Frames: 6
Frame Time: 0.033333
100.319627 40.450322 451.911323 -4.337053 -6.374414 -156.085935 0.298786 0.652231 155.574174 0.134784 -1.015896 -0.418693 4.131247 8.153585 0.320436 0.000000 0.000000 0.000000 -60.780465 34.778645 20.976411 81.438813 -43.966160 25.835120 -1.644734 13.236020 12.166151 -8.725712 -30.020781 0.975163 0.000000 0.000000 0.000000 0.000000 0.000000 0.000000 4.131247 8.153585 0.320436 14.045998 24.242149 -9.042267 -7.642267 -2.219641 5.648732 -17.285569 -23.387980 2.886941 0.000000 0.000000 0.000000 0.000000 0.000000 0.000000 -13.217843 -10.854064 153.024628 -2.891641 -9.030728 1.493891 0.051122 1.267477 1.592216 0.000000 0.000000 0.000000 1.583718 -8.489764 156.395202 9.205350 -0.747323 0.168770 -1.010080 9.727338 26.821312 0.000000 0.000000 0.000000
100.021745 44.707579 452.981633 -4.689803 -5.531630 -125.607875 0.529966 0.332839 125.107710 0.099052 -0.901041 -0.425676 4.557822 7.108837 0.349063 0.000000 0.000000 0.000000 -59.679727 34.298094 19.832058 81.087240 -45.190803 25.704870 -1.033320 18.836023 11.778229 -12.283453 -37.023289 2.969858 0.000000 0.000000 0.000000 0.000000 0.000000 0.000000 4.557822 7.108837 0.349063 16.133548 29.322454 -11.026040 -10.531224 -6.905562 5.985686 -12.907857 -13.336575 7.786470 0.000000 0.000000 0.000000 0.000000 0.000000 0.000000 -10.478804 1.233723 125.904301 -2.419853 -2.268475 -0.480704 0.438347 1.454975 3.594127 0.000000 0.000000 0.000000 0.685777 -6.802697 126.405270 10.638171 1.999506 -0.742998 -3.336869 12.355530 30.659553 0.000000 0.000000 0.000000
101.494155 45.890348 449.992710 -4.585384 -4.355391 -164.458214 0.210216 0.798446 164.016001 0.178916 -1.217163 -0.415549 4.336689 6.444686 0.349478 0.000000 0.000000 0.000000 -59.494870 33.994093 19.117340 80.817668 -44.791584 25.585070 -2.225887 19.228603 11.257928 -12.419588 -43.493233 5.589614 0.000000 0.000000 0.000000 0.000000 0.000000 0.000000 4.336689 6.444686 0.349478 17.535698 32.400521 -12.380415 -12.144749 -8.114624 6.145882 -9.364682 -6.730609 10.026931 0.000000 0.000000 0.000000 0.000000 0.000000 0.000000 -10.134976 -9.303054 162.254008 -2.415210 -7.410359 1.243089 0.822076 1.790336 5.785274 0.000000 0.000000 0.000000 5.722899 -8.553929 164.819673 12.360905 -2.298557 0.708038 -6.575233 14.354000 28.423394 0.000000 0.000000 0.000000
100.953102 40.749710 452.790112 -3.563244 -2.977101 -153.421783 0.302921 0.594654 153.129050 0.117869 -0.979519 -0.312490 3.417827 4.651950 0.318361 0.000000 0.000000 0.000000 -59.377619 33.243152 17.183173 80.536497 -38.302596 25.507458 -5.673675 15.327474 10.262229 -9.937859 -38.541918 3.943252 0.000000 0.000000 0.000000 0.000000 0.000000 0.000000 3.417827 4.651950 0.318361 17.842641 33.030047 -12.677010 -12.953292 -6.421332 6.344778 -5.449396 -2.887837 10.244503 0.000000 0.000000 0.000000 0.000000 0.000000 0.000000 -7.639425 -4.389519 152.186060 -1.213520 -4.394176 0.906076 1.125616 2.194584 7.739820 0.000000 0.000000 0.000000 4.272921 -7.374258 153.616629 10.670510 -1.674419 0.475968 -6.645390 13.589580 23.394506 0.000000 0.000000 0.000000
103.397586 39.221651 447.865054 -3.235656 -4.599730 149.568995 -0.424423 0.611653 -149.898470 0.170739 -1.052861 -0.311700 2.962542 6.419589 0.288586 0.000000 0.000000 0.000000 -60.874246 34.035385 19.077787 79.860437 -40.663258 25.247706 -2.205805 15.060599 11.110608 -11.264647 -35.348950 1.975887 0.000000 0.000000 0.000000 0.000000 0.000000 0.000000 2.962542 6.419589 0.288586 16.659894 30.549661 -11.539482 -19.444166 -8.455608 5.766583 5.918207 4.322189 9.046907 0.000000 0.000000 0.000000 0.000000 0.000000 0.000000 4.533693 -18.116199 -152.686157 -1.284128 -13.372332 3.848278 1.411462 2.488357 9.494782 0.000000 0.000000 0.000000 10.291844 -5.103146 -149.797916 9.574446 -4.852109 1.489298 -3.557829 10.784525 22.299805 0.000000 0.000000 0.000000
105.877493 38.792628 443.360504 -2.339496 -5.505248 129.653820 -0.511306 0.312913 -129.929910 0.152101 -0.799547 -0.249783 2.058735 6.912470 0.251538 0.000000 0.000000 0.000000 -62.049899 34.253101 19.598173 77.152161 -44.420802 24.167957 6.078295 9.293028 12.789414 -15.042343 -26.234347 0.500053 0.000000 0.000000 0.000000 0.000000 0.000000 0.000000 2.058735 6.912470 0.251538 16.644848 30.540747 -11.528986 -21.989450 -8.229129 5.747692 10.166312 3.873360 7.657881 0.000000 0.000000 0.000000 0.000000 0.000000 0.000000 15.564259 -18.685633 -132.767478 -0.843952 -18.287450 5.686217 1.611207 2.630486 10.640339 0.000000 0.000000 0.000000 11.595879 -4.258537 -130.262391 6.563895 -5.992208 1.707183 0.208614 6.291457 18.120114 0.000000 0.000000 0.000000
